<svg xmlns="http://www.w3.org/2000/svg" viewBox="0 0 255.00 193.46" data-guides="{&quot;vertical&quot;:[],&quot;horizontal&quot;:[]}"><defs/><path fill="rgb(0, 0, 0)" stroke="none" fill-opacity="1" stroke-width="1" stroke-opacity="1" id="tSvg34bf10d354" title="Бык" d="M20.9394 39.9406C14.8545 45.8294 12.2467 50.6386 12.2467 55.7422C12.2467 57.9505 12.5727 59.9134 13.1703 61.0912C14.2569 63.3485 17.7883 66.9309 20.2875 68.3049C20.8851 68.6321 21.4827 68.9592 22.0804 69.2864C20.8308 71.511 19.5812 73.7357 18.3316 75.9603C13.6049 84.3518 12.138 86.3148 7.0854 90.8295C2.4674 95.0007 1.0548 97.4053 1.0005 100.9876C0.9461 109.3301 10.8884 114.8753 21.1024 112.1763C23.0583 111.6856 27.948 111.293 34.9565 110.9986C40.9327 110.8023 46.3657 110.4588 46.9633 110.2625C47.9413 110.0171 48.2129 110.1643 48.4846 111.3421C49.2452 113.943 53.1026 120.9113 55.7104 124.1502C57.123 125.9659 62.0126 130.8732 66.5763 135.0935C72.9872 141.0313 75.2148 143.4359 76.3557 145.6442C76.8627 146.6093 77.3698 147.5744 77.8769 148.5395C77.8226 153.9376 77.7682 159.3356 77.7139 164.7337C77.6415 170.1154 77.569 175.497 77.4966 180.8787C76.7903 182.1546 76.084 183.4305 75.3777 184.7064C74.2368 186.8166 73.2589 188.8777 73.2589 189.2702C73.2589 189.7119 73.8565 190.5952 74.6171 191.2332C75.921 192.4109 76.084 192.46 84.6681 192.46C89.5578 192.46 93.9041 192.2637 94.4474 191.9693C95.8057 191.3313 95.9687 190.6443 99.6088 172.5854C101.293 164.1939 102.8685 157.0783 103.1402 156.6857C103.7921 155.6061 104.1181 156.6366 104.8244 161.4458C105.6937 167.1873 104.8244 174.5974 102.5426 180.8787C101.0213 185.2462 101.0213 185.3444 101.9993 186.5712C102.9772 187.798 103.0859 187.798 111.2896 187.798C119.4934 187.798 119.6021 187.798 120.58 186.5712C121.1233 185.8842 122.2099 183.2342 122.9705 180.6824C125.2524 172.9289 126.0673 166.5494 126.0673 156.8329C126.0673 153.8721 126.0673 150.9114 126.0673 147.9506C127.498 148.4087 128.9287 148.8667 130.3593 149.3247C137.2049 151.533 142.9095 152.4163 150.407 152.4163C161.1099 152.4654 168.6617 150.6987 176.7569 146.3312C181.3205 143.8285 187.8401 141.6202 189.144 142.0619C190.2306 142.4545 190.5566 144.4665 190.9369 153.9376C191.3172 162.8689 190.3936 172.8798 188.7094 178.2288C187.3511 182.5472 187.1882 184.7064 188.0574 185.8351C188.818 186.7184 189.633 186.8166 196.4242 186.9638C205.2799 187.111 206.2035 186.8166 207.5074 183.6268C209.3003 179.3084 211.2562 170.0336 211.8538 162.967C212.0711 160.5788 212.2884 158.1906 212.5058 155.8024C213.538 156.9801 214.5703 158.1579 215.6026 159.3356C220.2749 164.6355 220.1119 163.9485 219.4056 172.978C218.8623 179.7501 218.5364 181.5167 217.1781 184.7555C215.2766 189.4175 215.2222 190.0063 216.8521 191.3804C218.0474 192.4109 218.645 192.46 227.1748 192.46C235.5415 192.46 236.3565 192.3619 237.3344 191.4785C237.932 190.9387 238.421 190.3008 238.421 190.0063C238.421 189.761 239.5619 181.6639 240.9202 171.9965C243.7453 151.9746 243.7453 150.7969 240.8115 144.4174C235.4872 132.8852 235.5415 133.0324 235.8132 129.6464C236.0305 127.4381 236.5738 125.6224 237.6061 123.7576C238.1312 122.8579 238.6564 121.9582 239.1816 121.0586C239.4895 122.449 239.7974 123.8394 240.1052 125.2298C241.9524 133.2778 246.0815 143.0433 248.4177 144.81C249.7759 145.8405 252.6554 145.3007 253.579 143.8285C254.3396 142.6017 254.2309 142.2091 251.8948 137.6944C248.961 131.9528 248.3633 130.0389 245.4839 117.1327C241.5178 99.7608 238.2037 92.6452 230.8149 85.8731C227.0118 82.3889 225.3819 81.2602 221.5788 79.6408C219.0253 78.5121 215.0049 77.1872 212.6144 76.6474C206.3122 75.1752 195.9896 74.8807 187.0795 75.9113C183.2221 76.3529 176.4309 76.8436 172.0845 76.9909C165.2933 77.2362 163.6091 77.1381 159.7517 76.2548C154.6447 75.077 149.9723 73.065 142.4205 68.7466C134.8687 64.4772 129.3271 61.8273 122.3729 59.2755C97.3812 50.0497 74.6715 50.1969 60.9261 59.7171C60.1654 60.2406 59.4048 60.764 58.6442 61.2875C57.4671 60.7477 56.2899 60.2078 55.1128 59.668C51.527 58.0486 49.3538 57.5579 41.5304 56.5764C34.6305 55.6931 30.2841 53.4358 28.1109 49.5099C26.97 47.547 26.97 46.7127 27.948 41.0202C28.2196 39.2536 28.1109 38.861 27.0244 38.174C24.9598 36.8981 23.7646 37.2416 20.9394 39.9406ZM22.1347 52.945C23.2213 54.9079 26.8614 58.2449 29.3605 59.619C32.403 61.3365 36.4234 62.4161 42.5083 63.1032C45.9311 63.5448 49.6798 64.1828 50.7664 64.6244C51.4365 64.8698 52.1065 65.1152 52.7766 65.3605C52.3057 65.6877 51.8349 66.0148 51.364 66.342C49.8428 67.4216 47.7239 70.2678 47.7239 71.2002C47.7239 72.1817 50.3318 74.1937 51.527 74.1937C52.2333 74.1937 53.7545 73.2122 55.1128 71.9363C57.9923 69.2864 60.3828 68.3049 63.8599 68.3049C67.6086 68.3049 67.9346 68.6484 66.7937 71.053C65.2724 74.0465 62.9906 75.2733 58.3182 75.6168C53.7545 75.9603 52.6136 76.6474 52.6136 78.9047C52.6136 81.4075 54.4065 82.2417 59.1332 81.9473C66.196 81.4565 71.1944 78.1686 74.4541 71.9363C77.6053 65.8022 77.062 63.2504 72.2809 62.6124C71.466 62.4979 70.6511 62.3834 69.8361 62.2689C70.3251 62.0399 70.814 61.8109 71.303 61.5819C74.7801 59.9134 81.028 58.9319 87.9279 58.9319C103.6835 58.9319 119.5477 63.5939 137.3135 73.3104C145.8976 78.0214 151.1676 80.3278 156.7635 81.8491C161.0013 83.0269 162.4682 83.1741 170.2373 83.2232C175.5073 83.2722 181.1032 82.9778 184.363 82.5361C192.1865 81.4565 206.0949 81.5547 210.9845 82.7324C216.7978 84.1065 221.2528 86.2166 225.0016 89.4064C229.022 92.7924 231.4668 96.2766 233.9116 102.2145C235.7045 106.5329 235.7589 106.7292 235.1612 110.3606C234.7809 112.8143 233.7487 115.8077 232.1731 119.1938C227.5551 128.6649 227.6094 132.8852 232.4991 142.798C236.6825 151.3858 236.6825 151.3367 234.6723 166.2059C233.6943 173.2233 232.6621 180.5843 232.3361 182.4981C232.155 183.6923 231.9739 184.8864 231.7928 186.0805C230.5251 186.0805 229.2574 186.0805 227.9897 186.0805C224.9473 186.0805 224.241 185.9333 224.4583 185.3935C225.4906 183.038 225.9795 180.0445 226.4142 173.3215C227.1204 163.5068 226.6858 161.6421 222.4481 156.9801C221.0898 155.4588 218.482 152.3182 216.6348 149.9626C210.6042 142.3072 204.9539 138.2342 197.7281 136.3203C191.8062 134.75 183.9284 135.6824 177.5718 138.774C164.8587 144.859 161.1099 145.8405 150.407 145.8405C142.9095 145.8405 138.2371 145.1044 130.4137 142.6507C123.8941 140.6387 119.2218 140.0989 114.8211 140.9332C107.1606 142.3563 100.9127 146.5275 97.7072 152.4163C96.2947 155.0172 95.4254 158.1579 92.8719 170.6715C91.8396 175.7261 90.8074 180.7806 89.7751 185.8351C88.5617 185.8842 87.3484 185.9333 86.135 185.9823C84.9035 186.0314 83.6721 186.0805 82.4406 186.1296C82.7485 185.5898 83.0563 185.05 83.3642 184.5101C84.1791 183.1361 84.3965 180.6334 84.7768 167.1873C85.3201 150.208 85.1027 147.6562 82.7122 142.9452C80.9737 139.4119 78.7462 137.0564 70.2708 129.401C66.2504 125.8187 62.0126 121.4511 60.5457 119.3901C58.2096 116.2494 54.8411 109.7227 54.7868 108.2995C54.7868 108.0051 56.634 106.6801 58.9159 105.3552C63.7512 102.5089 65.0008 100.8895 63.9142 98.8284C62.7733 96.7183 60.3828 96.7673 56.5797 99.1229C48.8649 103.8339 45.3334 104.7172 34.3589 104.6681C27.785 104.6191 25.2858 104.8153 21.9174 105.6005C19.5812 106.1403 16.7017 106.582 15.5065 106.582C11.1058 106.582 8.0633 104.1283 8.0633 100.6441C8.0633 99.3682 8.8239 98.3377 12.5727 94.8535C17.9513 89.7499 19.9072 87.1981 24.5252 78.7575C26.5354 75.2242 28.3283 72.1817 28.5999 72.0345C28.8172 71.8873 30.6644 72.0345 32.6746 72.378C35.9344 72.8687 36.3691 72.8196 37.4013 71.9854C38.0533 71.4456 38.4879 70.4641 38.4879 69.4827C38.4879 67.4707 37.347 66.7346 32.7833 65.8513C23.4929 64.0846 18.1686 59.7171 19.2009 54.6626C19.5812 52.8959 20.3961 51.1293 20.8308 51.1293C20.9938 51.1293 21.5371 51.9636 22.1347 52.945ZM200.6619 144.3192C205.0626 146.5766 205.0083 146.3803 204.9539 155.3607C204.8996 163.7031 204.465 166.8929 202.2375 175.3825C201.7666 177.1492 201.2957 178.9158 200.8249 180.6824C199.847 180.6824 198.869 180.6824 197.8911 180.6824C196.2612 180.6824 194.9573 180.4861 194.9573 180.1917C194.9573 179.9463 195.4463 177.8853 195.9896 175.677C197.7824 168.8067 198.3801 161.9365 198.0541 153.2015C197.8911 148.7358 197.5651 144.6137 197.3478 143.9757C196.9132 142.5526 197.4021 142.6017 200.6619 144.3192ZM118.6785 148.5886C118.8958 149.5701 118.8958 154.3792 118.7328 159.2865C118.4068 167.9725 118.1895 169.1503 115.2557 180.5352C114.9841 181.5167 114.6037 181.6639 111.9959 181.6639C109.1164 181.6639 109.0078 181.6148 109.3338 180.5352C111.2896 174.352 111.507 172.7326 111.507 164.979C111.507 156.931 111.2353 155.2135 108.8991 150.2571C108.3015 148.9812 112.9195 146.9692 116.5596 146.871C118.1352 146.822 118.3525 146.9692 118.6785 148.5886Z" style=""/><text font-size="44px" font-weight="700" font-style="normal" text-anchor="middle" letter-spacing="8.8px" word-spacing="normal" data-lh="0.75" data-tt="capitalize" stroke="none" stroke-width="0" id="tSvg986773703e" data-ff="Arial" x="-29.00" y="-30.54" width="295" height="110" title="Curiosity about life" fill="#00000" fill-opacity="1" stroke-opacity="1" data-valign="middle" data-fs="normal" data-text="Говядо" style="font-family: Arial; text-decoration: none; transform-origin: 118.5px 24.46px;"><tspan y="39.86" x="122.90">Говядо</tspan></text></svg>