<?xml version="1.0" encoding="UTF-8" standalone="no"?>
<!-- Created with Inkscape (http://www.inkscape.org/) -->

<svg
   width="48"
   height="48"
   viewBox="0 0 12.7 12.7"
   version="1.1"
   id="svg1"
   xml:space="preserve"
   inkscape:version="1.4.4 (dcaf3e7, 2026-05-05)"
   sodipodi:docname="favicon.svg"
   xmlns:inkscape="http://www.inkscape.org/namespaces/inkscape"
   xmlns:sodipodi="http://sodipodi.sourceforge.net/DTD/sodipodi-0.dtd"
   xmlns="http://www.w3.org/2000/svg"
   xmlns:svg="http://www.w3.org/2000/svg"><sodipodi:namedview
     id="namedview1"
     pagecolor="#ffffff"
     bordercolor="#000000"
     borderopacity="0.25"
     inkscape:showpageshadow="2"
     inkscape:pageopacity="0.0"
     inkscape:pagecheckerboard="0"
     inkscape:deskcolor="#d1d1d1"
     inkscape:document-units="mm"
     inkscape:zoom="16.791366"
     inkscape:cx="22.392461"
     inkscape:cy="21.76714"
     inkscape:window-width="1920"
     inkscape:window-height="1051"
     inkscape:window-x="-9"
     inkscape:window-y="-9"
     inkscape:window-maximized="1"
     inkscape:current-layer="layer1" /><defs
     id="defs1"><rect
       x="6.2532139"
       y="20.069839"
       width="39.484579"
       height="25.012855"
       id="rect10" /><linearGradient
       inkscape:collect="always"
       id="linearGradient118859">
      <stop
   style="stop-color:#fc0000;stop-opacity:1;"
   offset="0"
   id="stop118855" />
      <stop
   style="stop-color:#000000;stop-opacity:1;"
   offset="1"
   id="stop118857" />
    </linearGradient><linearGradient
       inkscape:collect="always"
       id="linearGradient119593">
      <stop
   style="stop-color:#000000;stop-opacity:1;"
   offset="0"
   id="stop119589" />
      <stop
   style="stop-color:#f70000;stop-opacity:1;"
   offset="1"
   id="stop119591" />
    </linearGradient><filter
       inkscape:label="Riddled"
       inkscape:menu="Textures"
       inkscape:menu-tooltip="Riddle the surface and add bump to images"
       height="3.2753548"
       y="-1.1376774"
       width="3.0919245"
       x="-1.0459623"
       style="color-interpolation-filters:sRGB;"
       id="filter35"><feGaussianBlur
         stdDeviation="0.5"
         in="SourceGraphic"
         result="result1"
         id="feGaussianBlur31" /><feTurbulence
         type="fractalNoise"
         baseFrequency="0.04"
         numOctaves="10"
         result="result0"
         id="feTurbulence31" /><feGaussianBlur
         result="result8"
         stdDeviation="1"
         id="feGaussianBlur32" /><feDisplacementMap
         in2="result0"
         in="result1"
         xChannelSelector="R"
         yChannelSelector="B"
         scale="20"
         result="result2"
         id="feDisplacementMap32" /><feComposite
         result="result7"
         operator="in"
         in="result2"
         in2="result8"
         id="feComposite32" /><feComposite
         in2="result7"
         result="fbSourceGraphic"
         k2="0.15"
         in="result2"
         k1="2"
         operator="arithmetic"
         id="feComposite33" /><feColorMatrix
         values="1 0 0 -1 0 1 0 1 -1 0 1 0 0 -1 0 -0.8 -1 0 3.7 -2.6 "
         in="fbSourceGraphic"
         result="fbSourceGraphicAlpha"
         type="matrix"
         id="feColorMatrix33" /><feGaussianBlur
         stdDeviation="0.5"
         result="result9"
         id="feGaussianBlur33" /><feSpecularLighting
         surfaceScale="10"
         specularExponent="3"
         result="result11"
         specularConstant="0.7"
         id="feSpecularLighting33"><feDistantLight
           azimuth="235"
           elevation="55"
           id="feDistantLight33" /></feSpecularLighting><feDiffuseLighting
         in="result9"
         lighting-color="rgb(255,255,255)"
         result="result6"
         diffuseConstant="0.4"
         surfaceScale="50"
         id="feDiffuseLighting34"><feDistantLight
           elevation="10"
           azimuth="235"
           id="feDistantLight34" /></feDiffuseLighting><feBlend
         result="result10"
         mode="screen"
         in2="result11"
         id="feBlend34" /><feComposite
         in2="fbSourceGraphic"
         in="result10"
         result="result2"
         operator="in"
         id="feComposite34" /><feComposite
         k3="0.9"
         k2="1"
         operator="arithmetic"
         in2="fbSourceGraphic"
         id="feComposite35" /></filter><filter
       inkscape:label="Riddled"
       inkscape:menu="Textures"
       inkscape:menu-tooltip="Riddle the surface and add bump to images"
       height="3.1401851"
       y="-1.0700926"
       width="2.9676481"
       x="-0.98382407"
       style="color-interpolation-filters:sRGB;"
       id="filter39"><feGaussianBlur
         stdDeviation="0.5"
         in="SourceGraphic"
         result="result1"
         id="feGaussianBlur35" /><feTurbulence
         type="fractalNoise"
         baseFrequency="0.04"
         numOctaves="10"
         result="result0"
         id="feTurbulence35" /><feGaussianBlur
         result="result8"
         stdDeviation="1"
         id="feGaussianBlur36" /><feDisplacementMap
         in2="result0"
         in="result1"
         xChannelSelector="R"
         yChannelSelector="B"
         scale="20"
         result="result2"
         id="feDisplacementMap36" /><feComposite
         result="result7"
         operator="in"
         in="result2"
         in2="result8"
         id="feComposite36" /><feComposite
         in2="result7"
         result="fbSourceGraphic"
         k2="0.15"
         in="result2"
         k1="2"
         operator="arithmetic"
         id="feComposite37" /><feColorMatrix
         values="1 0 0 -1 0 1 0 1 -1 0 1 0 0 -1 0 -0.8 -1 0 3.7 -2.6 "
         in="fbSourceGraphic"
         result="fbSourceGraphicAlpha"
         type="matrix"
         id="feColorMatrix37" /><feGaussianBlur
         stdDeviation="0.5"
         result="result9"
         id="feGaussianBlur37" /><feSpecularLighting
         surfaceScale="10"
         specularExponent="3"
         result="result11"
         specularConstant="0.7"
         id="feSpecularLighting37"><feDistantLight
           azimuth="235"
           elevation="55"
           id="feDistantLight37" /></feSpecularLighting><feDiffuseLighting
         in="result9"
         lighting-color="rgb(255,255,255)"
         result="result6"
         diffuseConstant="0.4"
         surfaceScale="50"
         id="feDiffuseLighting38"><feDistantLight
           elevation="10"
           azimuth="235"
           id="feDistantLight38" /></feDiffuseLighting><feBlend
         result="result10"
         mode="screen"
         in2="result11"
         id="feBlend38" /><feComposite
         in2="fbSourceGraphic"
         in="result10"
         result="result2"
         operator="in"
         id="feComposite38" /><feComposite
         k3="0.9"
         k2="1"
         operator="arithmetic"
         in2="fbSourceGraphic"
         id="feComposite39" /></filter><filter
       inkscape:label="Riddled"
       inkscape:menu="Textures"
       inkscape:menu-tooltip="Riddle the surface and add bump to images"
       height="3.324287"
       y="-1.1621435"
       width="3.16861"
       x="-1.084305"
       style="color-interpolation-filters:sRGB;"
       id="filter43"><feGaussianBlur
         stdDeviation="0.5"
         in="SourceGraphic"
         result="result1"
         id="feGaussianBlur39" /><feTurbulence
         type="fractalNoise"
         baseFrequency="0.04"
         numOctaves="10"
         result="result0"
         id="feTurbulence39" /><feGaussianBlur
         result="result8"
         stdDeviation="1"
         id="feGaussianBlur40" /><feDisplacementMap
         in2="result0"
         in="result1"
         xChannelSelector="R"
         yChannelSelector="B"
         scale="20"
         result="result2"
         id="feDisplacementMap40" /><feComposite
         result="result7"
         operator="in"
         in="result2"
         in2="result8"
         id="feComposite40" /><feComposite
         in2="result7"
         result="fbSourceGraphic"
         k2="0.15"
         in="result2"
         k1="2"
         operator="arithmetic"
         id="feComposite41" /><feColorMatrix
         values="1 0 0 -1 0 1 0 1 -1 0 1 0 0 -1 0 -0.8 -1 0 3.7 -2.6 "
         in="fbSourceGraphic"
         result="fbSourceGraphicAlpha"
         type="matrix"
         id="feColorMatrix41" /><feGaussianBlur
         stdDeviation="0.5"
         result="result9"
         id="feGaussianBlur41" /><feSpecularLighting
         surfaceScale="10"
         specularExponent="3"
         result="result11"
         specularConstant="0.7"
         id="feSpecularLighting41"><feDistantLight
           azimuth="235"
           elevation="55"
           id="feDistantLight41" /></feSpecularLighting><feDiffuseLighting
         in="result9"
         lighting-color="rgb(255,255,255)"
         result="result6"
         diffuseConstant="0.4"
         surfaceScale="50"
         id="feDiffuseLighting42"><feDistantLight
           elevation="10"
           azimuth="235"
           id="feDistantLight42" /></feDiffuseLighting><feBlend
         result="result10"
         mode="screen"
         in2="result11"
         id="feBlend42" /><feComposite
         in2="fbSourceGraphic"
         in="result10"
         result="result2"
         operator="in"
         id="feComposite42" /><feComposite
         k3="0.9"
         k2="1"
         operator="arithmetic"
         in2="fbSourceGraphic"
         id="feComposite43" /></filter><clipPath
       clipPathUnits="userSpaceOnUse"
       id="clipPath45"><path
         id="path45"
         style="opacity:1;fill:#000000;fill-opacity:1;stroke-width:0.208817"
         d="m 10.817991,1.7108243 0.04877,0.4947813 -0.195066,0.2284566 H 9.5624506 L 9.3066257,2.0533011 9.3190179,2.2688576 9.4893012,2.5226983 9.1971012,2.7003868 8.3804603,2.7257709 8.4048437,3.0557637 8.7825851,3.3349883 9.2638555,4.0432454 8.9532682,4.6037757 6.9666283,4.9083844 5.6379379,5.3902655 4.8656667,5.6773967 4.3704058,6.5704167 v 0.00707 L 4.1753394,6.8875089 4.0594187,7.4838264 3.9375022,7.9407395 3.6512982,8.2961165 3.4318484,8.6577353 3.37109,8.8608078 3.4014692,9.1208906 3.5049983,9.0826064 3.5965356,8.6639773 4.1021894,7.9536397 4.3400266,7.0460552 4.3704058,7.0036096 V 8.1438121 L 3.6976664,9.8549476 3.9071229,10.668902 h 0.390133 L 4.1389642,9.9073801 5.6503295,8.3976527 5.8633837,9.698066 6.2595125,10.40882 H 6.6068747 L 6.2898916,9.698066 6.3326624,8.9494441 6.6008788,8.4230368 l 1.7112284,0.055346 0.07315,0.6862018 0.3617523,1.0095364 0.2973966,0.69078 h 0.3965285 l -0.3017941,-0.726567 -0.004,-1.0186912 0.4868666,-0.7760865 0.4436959,0.7090893 0.737095,1.5708984 h 0.412118 l -0.2914,-0.525574 -0.159491,-1.2833522 0.443696,-1.1618409 0.26302,-1.2517258 V 4.8580324 l -0.7259,-2.0182413 0.292599,-0.6088015 z" /></clipPath></defs><g
     inkscape:label="Слой 1"
     inkscape:groupmode="layer"
     id="layer1"><g
       id="g19"
       transform="matrix(1.2927953,0,0,1.2418272,-3.475495,-1.3364826)"
       clip-path="url(#clipPath45)"><path
         id="path10"
         style="opacity:1;fill:#000000;fill-opacity:1;stroke-width:0.264583"
         d="M 10.509953 0.78806559 L 10.572998 1.4024984 L 10.320817 1.686202 L 8.8867961 1.686202 L 8.5560669 1.2133626 L 8.5720866 1.4810465 L 8.7922282 1.7962728 L 8.4144735 2.0169312 L 7.358724 2.0484538 L 7.3902466 2.4582479 L 7.8785889 2.8049967 L 8.5007731 3.6845296 L 8.0992472 4.3806112 L 5.5309285 4.7588826 L 3.8132039 5.3572957 L 2.8148153 5.7138631 L 2.1745443 6.8228394 L 2.1745443 6.8316243 L 1.9223633 7.2166138 L 1.7725016 7.957137 L 1.6148885 8.5245443 L 1.2448853 8.965861 L 0.96118164 9.4149292 L 0.88263346 9.6671102 L 0.92190755 9.9900879 L 1.0557495 9.9425456 L 1.1740885 9.4226807 L 1.8277954 8.540564 L 2.1352702 7.413501 L 2.1745443 7.360791 L 2.1745443 8.7767253 L 1.3048299 10.90166 L 1.5756144 11.912451 L 2.0799764 11.912451 L 1.8753377 10.966772 L 3.8292236 9.0919515 L 4.104659 10.70684 L 4.6167725 11.589473 L 5.0658407 11.589473 L 4.6560465 10.70684 L 4.7113403 9.777181 L 5.0580892 9.1234741 L 7.2703573 9.1922038 L 7.3649251 10.044348 L 7.8325968 11.298018 L 8.2170695 12.155847 L 8.7296997 12.155847 L 8.3395426 11.253577 L 8.334375 9.9885376 L 8.9637939 9.0247721 L 9.5374023 9.9053385 L 10.490316 11.856124 L 11.0231 11.856124 L 10.646379 11.203451 L 10.44019 9.6097493 L 11.013798 8.1669434 L 11.353829 6.6125163 L 11.353829 4.6963542 L 10.415385 2.1900472 L 10.793656 1.434021 L 10.509953 0.78806559 z "
         transform="matrix(0.77351767,0,0,0.80526502,2.6883568,1.0762227)" /><path
         style="opacity:1;fill:#ff3d01;fill-opacity:1;stroke:none;stroke-width:0.118583;stroke-dasharray:none;stroke-opacity:1;filter:url(#filter39)"
         d="M 5.8713289,9.1260541 V 7.1967668 L 6.4649068,6.5697484 6.7110245,6.0271364 6.696547,4.6404608 7.2611701,5.8462656 7.4928106,5.4001177 7.6520628,4.6404608 7.8837032,5.2433631 7.7968381,6.1477166 8.1877306,5.6412787 7.9126582,6.256239 V 6.6059227 L 8.2601185,7.0882439 8.0863884,6.5697484 8.1008664,6.1838909 8.2890743,5.8824396 l -0.043433,0.3858576 0.1158194,0.2411611 0.275073,0.1205801 0.260595,-0.1085223 0.130298,-0.3617415 -0.144775,-0.5184959 -0.08687,-0.3617414 0.08687,-0.4099734 0.130297,-0.1085224 -0.07239,0.313509 0.130298,0.482322 0.28955,0.4823217 0.144775,0.4220319 -0.17373,1.0249338 0.419847,-0.4582053 0.01448,-0.5064385 -0.23164,-0.4823219 0.11582,-0.5184959 0.246118,0.7234829 0.8541733,0.3979155 v 2.4718994 z"
         id="path16"
         transform="matrix(1.9142011,0,0,1.5410563,-3.1632335,-1.0724439)" /><path
         style="opacity:1;fill:#ff9201;fill-opacity:1;stroke:none;stroke-width:0.111538;stroke-dasharray:none;stroke-opacity:1;filter:url(#filter35)"
         d="M 6.0162473,9.0927452 V 7.2780691 L 6.5745632,6.6882993 6.8060601,6.1779215 6.7924427,4.8736229 7.3235236,6.0077957 7.5414034,5.5881516 7.6911951,4.8736229 7.9090747,5.4407092 7.8273699,6.2913387 8.1950411,5.8149862 7.9363096,6.3934143 V 6.7223246 L 8.2631286,7.1759931 8.0997192,6.6882993 8.1133368,6.3253641 8.290364,6.0418208 8.249511,6.4047561 l 0.1089397,0.2268346 0.258732,0.113417 0.245114,-0.1020754 0.122557,-0.3402519 -0.136174,-0.4876942 -0.08171,-0.3402517 0.08171,-0.3856186 0.122557,-0.1020757 -0.06809,0.2948847 0.122557,0.4536693 0.27235,0.453669 0.136173,0.3969606 -0.163409,0.9640466 0.394906,-0.4309851 0.01361,-0.476353 -0.217879,-0.4536691 0.10894,-0.4876942 0.231497,0.6805038 0.8034313,0.3742768 v 2.325054 z"
         id="path15"
         transform="matrix(1.9142011,0,0,1.5410563,-3.1632335,-1.0724439)" /><path
         style="opacity:1;fill:#ecff01;fill-opacity:1;stroke:none;stroke-width:0.10839;stroke-dasharray:none;stroke-opacity:1;filter:url(#filter43)"
         d="M 6.1371893,9.1260542 V 7.3495816 L 6.6757605,6.7722282 6.8990706,6.2725952 6.8859348,4.9957553 7.3982343,6.106051 7.6084084,5.6952414 7.7529031,4.9957553 7.9630773,5.5509031 7.884262,6.3836247 8.2389309,5.9173006 7.9893492,6.4835512 V 6.805537 L 8.3046103,7.2496546 8.1469798,6.7722282 8.1601155,6.4169336 8.3308817,6.1393597 l -0.039407,0.3552945 0.105087,0.2220591 0.249581,0.1110294 0.236446,-0.099927 0.118223,-0.3330886 -0.131358,-0.477427 -0.07882,-0.3330887 0.07882,-0.3775002 0.118222,-0.099927 -0.06568,0.2886766 0.118224,0.4441183 0.262717,0.4441181 0.13136,0.3886035 -0.15763,0.9437518 0.38094,-0.4219118 0.01314,-0.4663245 -0.210174,-0.4441181 0.105087,-0.477427 0.22331,0.6661772 0.7750183,0.3663974 v 2.2761055 z"
         id="path14"
         transform="matrix(1.9142011,0,0,1.5410563,-3.1632335,-1.0724439)" /></g></g><g
     inkscape:groupmode="layer"
     id="layer3"
     inkscape:label="Слой 2" /></svg>
