<svg xmlns="http://www.w3.org/2000/svg" xmlns:xlink="http://www.w3.org/1999/xlink" viewBox="171.2 200.46 609.89 260.37"><path fill="white" d="M641.073 242.994C639.548 241.206 636.763 237.831 634.853 236.558C624.761 229.829 610.547 224.266 598.732 221.799C593.802 220.769 586.191 220.778 581.129 220.325C574.765 219.757 569.396 219.628 563.32 220.12C559.154 220.458 537.576 224.207 535.243 223.804C531.799 212.335 575.282 200.95 583.373 200.532C590.181 200.198 596.996 201.004 603.538 202.916C623.374 208.762 651.052 228.113 666.418 241.938C663.674 244.368 653.908 250.917 655.62 254.309C658.064 255.063 661.998 250.949 664.227 249.788C679.527 241.818 695.365 246.018 709.502 254.06C714.73 256.879 718.848 260.374 724.243 262.993C747.044 274.063 762.417 265.483 774.012 244.826C776.294 240.761 776.816 235.362 779.232 230.583C779.708 234 780.874 240.482 781.03 243.605C781.299 249.006 780.713 259.573 779.463 264.609C779.01 266.434 772.374 276.479 771.193 277.795C768.452 280.847 759.954 287.559 756.158 289.078C747.673 292.474 734.456 293.983 725.265 293.624C723.429 293.553 717.077 290.999 714.954 290.629C713.252 290.332 709.858 290.585 708.096 290.677C708.163 297.08 708.859 303.862 709.624 310.214C716.627 318.134 708.01 321.068 701.668 323.387C698.077 329.071 695.279 334.107 691.374 339.777C688.696 343.665 683.573 350.375 681.532 354.22C678.085 356.282 681.899 366.424 679.695 369.612C674.597 370.784 670.716 370.218 665.819 371.014C661.666 371.69 658.333 373.811 653.752 374.282C648.881 369.48 640.165 363.644 636.583 358.05C636.159 357.387 636.01 356.494 635.316 355.595C634.717 331.041 628.104 317.32 648.477 298.367L648.512 289.919C634.047 301.518 628.646 308.058 621.533 324.879C625.682 303.977 629.823 283.785 626.918 262.527C626.41 258.807 626.171 253.503 624.966 250.019C624.313 248.134 621.971 244.06 620.913 241.823L621.236 241.611C628.197 236.983 634.202 239.713 641.073 242.994ZM688.897 311.782C691.164 310.692 692.67 313.662 695.49 314.359L696.223 314.022C696.892 311.403 691.289 305.882 689.326 303.31C686.1 299.082 682.024 286.572 679.324 283.763C678.045 286.672 677.655 293.514 678.277 296.619L678.343 296.959C679.161 301.052 682.506 304.563 682.847 306.872C683.244 309.558 679.111 315.389 681.409 319.752L682.126 319.987C684.183 318.809 687.675 313.961 688.897 311.782Z"/><path fill="white" d="M325.542 225.746L325.944 226.425C323.843 235.768 322.138 238.254 313.548 243.088C303.054 248.995 292.373 245.617 281.304 243.835C278.476 243.38 273.745 243.623 270.815 243.683C264.782 248.926 259.826 253.432 257.94 261.496C254.508 276.165 269.972 289.233 283.796 288.35C292.086 287.82 301.664 289.165 309.856 287.748C315.779 286.724 322.531 284.69 328.407 283.182C328.074 291.377 327.397 294.696 324.831 302.508C317.904 304.062 308.532 305.351 301.358 306.51C299.467 312.178 297.012 323.999 295.533 330.15C292.195 344.463 288.585 358.711 284.705 372.887C282.971 379.382 281.024 387.5 278.891 393.781C268.401 396.486 254.325 397.564 245.116 402.147C239.111 405.026 234.779 410.821 230.055 414.907C214.589 428.284 209.598 439.383 204.149 459.314L196.371 459.317L171.203 459.149C173.616 450.162 172.937 446.676 179.83 440.363C183.051 440.144 186.956 440.261 190.233 440.276L191.459 435.446C188.76 434.705 186.749 434.249 183.995 433.744C190.641 425.983 192.289 425.412 202.415 425.202C210.95 410.697 219.14 395.79 227.814 381.385C238.987 381.369 247.445 382.224 257.472 375.896C266.987 370.205 270.18 361.024 272.751 350.824C276.91 334.319 281.926 317.857 285.854 301.272C285.511 301.194 285.168 301.112 284.827 301.027C275.421 298.696 268.589 296.927 260.297 291.624C255.502 288.557 252.007 287.598 248.962 282.212C239.931 266.236 245.428 241.688 261.692 232.439C273.137 225.93 282.288 228.205 293.923 232.065C307.447 236.5 314.271 232.16 325.542 225.746Z"/><path fill="white" d="M557.751 229.577L559.995 229.368L560.579 229.863C560.746 234.72 558.527 253.282 557.957 259.051L551.877 319.969C554.117 320.053 556.481 320.229 558.73 320.359C558.34 333.885 557.823 347.406 557.181 360.923C551.84 361.275 546.494 361.513 541.143 361.637L541.452 346.419C530.713 347.464 517.62 349.805 506.696 351.296C506.555 354.88 506.543 358.696 506.471 362.301L506.046 369.623C500.88 370.212 495.115 370.57 489.916 370.899C490.513 358.091 491.726 344.559 492.666 331.721C503.942 325.677 502.032 322.818 505.764 311.583C511.034 295.715 512.639 283.728 513.951 267.273L516.406 235.586C530.009 233.433 544.092 231.554 557.751 229.577ZM530.716 258.652C528.045 279.666 526.697 299.343 519.346 319.319C518.811 320.771 517.187 324.236 517.428 325.429C518.173 325.518 518.294 325.585 519.032 325.513C524.027 324.919 529.031 324.396 534.041 323.947C535.134 316.217 541.66 261.19 540.237 257.561C539.242 257.339 539.619 257.314 538.656 257.518C536.036 257.861 533.307 258.176 530.716 258.652Z"/><path fill="white" d="M498.18 238.217L498.597 238.204C498.72 238.404 498.843 238.605 498.967 238.805C495.45 269.527 487.164 347.2 483.959 372.77C477.893 374.162 471.318 375.216 465.16 376.311C466.54 361.253 468.91 344.622 470.783 329.502C464.678 341.238 458.151 356.403 452.492 368.596C451.031 371.804 448.813 377.041 446.974 379.793C440.093 380.461 433.228 381.371 426.282 382.03C436.077 363.285 445.804 342.891 455.307 323.847C451.337 319.807 447.392 315.742 443.473 311.652C440.72 294.666 443.851 277.506 454.05 263.524C464.447 249.271 481.969 243.077 498.18 238.217ZM463.525 304.342C468.498 306.267 469.692 305.82 474.872 304.714C476.291 296.752 478.896 277.301 479.422 269.489L478.711 268.894C463.192 270.406 455.449 292.401 463.525 304.342Z"/><path fill="white" d="M430.213 262.508C440.854 263.508 439.139 279.736 438.432 287.151C437.287 299.171 433.338 303.751 425.513 312.503C431.882 319.483 433.804 323.797 434.238 333.332C435.454 360.063 420.183 382.066 392.169 382.785C384.516 383.091 381.036 383.546 373.482 381.722C377.802 360.647 381.766 339.501 385.372 318.292C386.863 309.497 388.581 300.071 389.762 291.26C390.471 285.968 390.706 278.397 391.128 272.811C405.476 268.439 415.344 265.433 430.213 262.508ZM400.158 331.73C399.044 338.851 397.919 349.109 397.346 356.354C399.951 356.413 403.108 356.61 405.624 356.157C414.581 348.103 417.567 344.707 414.823 332.183C412.041 330.582 411.027 329.583 407.934 330.274L400.158 331.73ZM404.682 306.452L410.844 306.899C412.453 306.091 413.642 305.464 415.011 304.261C419.57 300.253 424.092 287.596 415.097 285.812C410.569 286.646 407.583 287.18 406.596 292.574C405.75 297.196 405.54 301.778 404.682 306.452Z"/><path fill="white" d="M597.003 230.392C599.571 229.812 604.239 230.671 606.39 232.185C616.872 239.566 619.568 257.111 620.073 268.656C620.952 288.747 618.383 307.061 610.58 325.559C606.382 335.513 599.797 348.076 588.361 350.714C557.606 352.373 562.722 287.72 568.12 269.833C573.123 253.254 577.596 234.805 597.003 230.392ZM582.169 316.064C584.786 319.376 585.238 320.454 589.227 321.55C590.571 321.14 592.581 320.601 593.788 320.003C602.766 306.79 603.621 283.61 601.973 268.131C601.607 264.698 598.602 259.818 595.221 258.643C590.038 260.808 587.595 263.87 585.984 269.268C581.459 284.438 580.921 300.38 582.169 316.064Z"/><path fill="white" d="M360.759 275.336C364.45 274.892 366.962 275.172 370.025 277.561C374.22 280.834 377.819 287.457 378.404 292.748C380.688 313.442 376.867 333.67 369.008 352.826C366.766 358.297 364.922 364.403 360.95 368.94C353.671 377.254 347.174 388.128 335.374 389.549C328.273 389.695 325.337 387.355 320.558 382.948C317.938 373.886 317.372 369.986 317.197 360.676C316.95 335.88 324.417 311.62 338.566 291.253C343.62 284.061 351.861 276.913 360.759 275.336ZM340.582 360.683C358.63 358.665 371.493 307.919 354.602 305.066C337.981 307.875 330.127 337.987 332.427 352.399C333.235 357.465 335.491 360.064 340.582 360.683Z"/><path fill="white" d="M585.794 362.323C586.656 362.195 588.46 361.832 589.188 362.396C593.429 365.686 597.353 369.605 601.294 373.253C608.026 379.558 614.912 385.696 621.948 391.661C621.971 393.076 622.168 402.051 622.018 403.111C619.833 418.516 603.833 437.697 592.533 448.146C586.02 454.169 574.163 459.106 565.483 460.707C563.904 460.998 558.086 460.67 556.256 460.575C555.935 448.163 557.438 436.832 565.826 427.129C569.002 425.024 573.575 425.86 577.102 426.421C577.011 429.859 576.977 434.024 581.085 435.188C582.396 433.77 581.801 429.389 582.514 428.516C590.399 418.858 594.957 423.262 593.911 408.603C589.921 402.759 589.42 402.56 582.773 400.63C557.728 409.312 539.03 393.892 526.761 373.239C546.194 369.38 566.268 365.926 585.794 362.323Z"/><path fill="white" d="M357.395 384.928C358.286 385.483 360.288 387.015 361.127 387.722C372.036 396.905 381.714 395.307 395.113 394.758C381.334 407.785 372.911 409.429 355.455 415.29C358.974 417.86 367.687 426.193 371.305 429.49L403.156 458.529C402.343 459.061 400.139 458.985 399.039 459.029C391.015 459.367 382.691 458.982 374.635 459.176C371.085 459.262 367.049 459.262 363.549 458.824C350.396 449.601 367.241 446.474 363.547 441.535C359.864 440.855 354.252 441.454 349.669 440.974C345.15 436.469 321.052 413.641 320.236 409.552C321.769 408.286 325.184 408.613 327.48 407.669C335.247 404.474 344.04 399.372 350.213 393.707C352.179 391.903 355.75 387.074 357.395 384.928Z"/><path fill="white" d="M537.82 401.408C539.41 402.078 545.699 409.872 548.055 411.219C551.155 412.993 557.521 414.403 559.658 416.728C559.544 419.186 555 421.048 552.958 422.396C543.244 428.812 524.112 433.522 512.625 433.956L499.192 434.07C502.615 422.594 507.161 408.81 520.358 405.48C522.872 409.367 525.459 413.207 528.116 416.998C528.748 409.121 532.475 406.952 537.82 401.408Z"/><path fill="white" d="M510.28 375.009C510.495 375.005 511.706 375.237 511.709 375.24C514.958 378.439 522.412 387.608 524.926 390.626C513.71 386.116 510.362 385.368 498.423 383.843C492.233 383.268 483.778 384.079 477.148 384.037C480.563 382.776 485.313 380.956 488.802 380.187C496.816 378.421 502.69 378.102 510.28 375.009Z"/><path fill="white" d="M653.752 374.282C658.333 373.811 661.666 371.69 665.819 371.014C670.716 370.218 674.597 370.784 679.695 369.612C681.899 366.424 678.085 356.282 681.532 354.22C681.663 359.763 681.944 365.888 681.918 371.385C666.905 372.624 668.89 370.393 653.944 376.342C648.404 371.599 642.329 366.709 637.227 361.468C635.286 359.475 635.274 358.315 635.316 355.595C636.01 356.494 636.159 357.387 636.583 358.05C640.165 363.644 648.881 369.48 653.752 374.282Z"/></svg>